<?xml version="1.0" encoding="UTF-8" standalone="no"?><!DOCTYPE svg PUBLIC "-//W3C//DTD SVG 1.1//EN" "http://www.w3.org/Graphics/SVG/1.1/DTD/svg11.dtd"><svg width="100%" height="100%" viewBox="0 0 496 496" version="1.1" xmlns="http://www.w3.org/2000/svg" xmlns:xlink="http://www.w3.org/1999/xlink" xml:space="preserve" xmlns:serif="http://www.serif.com/" style="fill-rule:evenodd;clip-rule:evenodd;stroke-linejoin:round;stroke-miterlimit:1.41421;"><g transform="matrix(1,0,0,1,-712.303,-292.303)"><g transform="matrix(1,0,0,1,213.146,-216.919)"><g transform="matrix(0.704424,0,0,0.704424,297.84,323.655)"><circle cx="637.42" cy="615.062" r="351.63" style="fill:#fff;"/></g><g transform="matrix(1,0,0,1,38.1023,6.1903)"><g transform="matrix(1,0,0,1,-87.3257,-16.475)"><g transform="matrix(1,0,0,1,658.541,946.48)"><path d="M60.375,4.688C52.625,4.688 45.938,2.188 40.313,-2.813C34.688,-7.813 31.875,-14.813 31.875,-23.813C31.875,-31.438 34.563,-38 39.938,-43.5C45.313,-49 51.938,-51.75 59.813,-51.75C67.688,-51.75 74.406,-49.031 79.969,-43.594C85.531,-38.156 88.313,-31.563 88.313,-23.813C88.313,-14.938 85.531,-7.969 79.969,-2.906C74.406,2.156 67.875,4.688 60.375,4.688Z" style="fill-rule:nonzero;"/></g><g transform="matrix(1,0,0,1,190.855,18.574)"><path d="M571.196,873.648L604.946,870.366C606.977,881.695 611.098,890.015 617.309,895.327C623.52,900.64 631.899,903.296 642.446,903.296C653.618,903.296 662.035,900.933 667.7,896.206C673.364,891.48 676.196,885.952 676.196,879.624C676.196,875.562 675.004,872.105 672.621,869.253C670.239,866.402 666.078,863.921 660.141,861.812C656.078,860.405 646.821,857.905 632.368,854.312C613.774,849.702 600.727,844.038 593.227,837.32C582.68,827.866 577.407,816.343 577.407,802.749C577.407,793.999 579.887,785.816 584.848,778.198C589.809,770.581 596.957,764.78 606.293,760.796C615.629,756.812 626.899,754.82 640.102,754.82C661.664,754.82 677.895,759.546 688.793,768.999C699.692,778.452 705.414,791.07 705.961,806.851L671.274,808.374C669.789,799.546 666.606,793.198 661.723,789.331C656.84,785.464 649.516,783.53 639.75,783.53C629.672,783.53 621.782,785.601 616.078,789.741C612.407,792.398 610.571,795.952 610.571,800.405C610.571,804.468 612.289,807.945 615.727,810.835C620.102,814.507 630.727,818.335 647.602,822.32C664.477,826.304 676.957,830.425 685.043,834.683C693.129,838.941 699.457,844.761 704.028,852.144C708.598,859.527 710.883,868.648 710.883,879.507C710.883,889.351 708.149,898.57 702.68,907.163C697.211,915.757 689.477,922.144 679.477,926.323C669.477,930.503 657.016,932.593 642.094,932.593C620.375,932.593 603.696,927.573 592.055,917.534C580.414,907.495 573.461,892.866 571.196,873.648Z" style="fill-rule:nonzero;"/></g></g><g transform="matrix(1,0,0,1,-150.304,-361.782)"><path d="M941.982,928.547L964.716,928.547L964.716,1027.81C964.716,1045.07 962.763,1058.78 958.857,1068.94C954.95,1079.09 947.899,1087.36 937.704,1093.72C927.509,1100.09 914.13,1103.27 897.567,1103.27C881.474,1103.27 868.31,1100.5 858.075,1094.95C847.841,1089.41 840.536,1081.38 836.161,1070.87C831.786,1060.36 829.599,1046.01 829.599,1027.81L829.599,928.547L852.333,928.547L852.333,1027.69C852.333,1042.61 853.72,1053.61 856.493,1060.68C859.267,1067.75 864.032,1073.19 870.79,1077.02C877.548,1080.85 885.81,1082.77 895.575,1082.77C912.294,1082.77 924.208,1078.98 931.317,1071.4C938.427,1063.82 941.982,1049.25 941.982,1027.69L941.982,928.547Z" style="fill-rule:nonzero;"/></g></g></g></g></svg>