<?xml version="1.0" encoding="UTF-8" standalone="no"?>
<!DOCTYPE svg PUBLIC "-//W3C//DTD SVG 1.1//EN" "http://www.w3.org/Graphics/SVG/1.1/DTD/svg11.dtd">
<svg width="100%" height="100%" viewBox="0 0 868 381" version="1.1" xmlns="http://www.w3.org/2000/svg" xmlns:xlink="http://www.w3.org/1999/xlink" xml:space="preserve" xmlns:serif="http://www.serif.com/" style="fill-rule:evenodd;clip-rule:evenodd;stroke-linejoin:round;stroke-miterlimit:1.41421;">
    <g transform="matrix(1,0,0,1,-512.656,-318.233)">
        <g transform="matrix(1,0,0,1,-52.9959,-39.0663)">
            <g transform="matrix(1,0,0,1,73.3181,-196.172)">
                <path d="M571.196,873.648L604.946,870.366C606.977,881.695 611.098,890.015 617.309,895.327C623.52,900.64 631.899,903.296 642.446,903.296C653.618,903.296 662.035,900.933 667.7,896.206C673.364,891.48 676.196,885.952 676.196,879.624C676.196,875.562 675.004,872.105 672.621,869.253C670.239,866.402 666.078,863.921 660.141,861.812C656.078,860.405 646.821,857.905 632.368,854.312C613.774,849.702 600.727,844.038 593.227,837.32C582.68,827.866 577.407,816.343 577.407,802.749C577.407,793.999 579.887,785.816 584.848,778.198C589.809,770.581 596.957,764.78 606.293,760.796C615.629,756.812 626.899,754.82 640.102,754.82C661.664,754.82 677.895,759.546 688.793,768.999C699.692,778.452 705.414,791.07 705.961,806.851L671.274,808.374C669.789,799.546 666.606,793.198 661.723,789.331C656.84,785.464 649.516,783.53 639.75,783.53C629.672,783.53 621.782,785.601 616.078,789.741C612.407,792.398 610.571,795.952 610.571,800.405C610.571,804.468 612.289,807.945 615.727,810.835C620.102,814.507 630.727,818.335 647.602,822.32C664.477,826.304 676.957,830.425 685.043,834.683C693.129,838.941 699.457,844.761 704.028,852.144C708.598,859.527 710.883,868.648 710.883,879.507C710.883,889.351 708.149,898.57 702.68,907.163C697.211,915.757 689.477,922.144 679.477,926.323C669.477,930.503 657.016,932.593 642.094,932.593C620.375,932.593 603.696,927.573 592.055,917.534C580.414,907.495 573.461,892.866 571.196,873.648Z" style="fill-rule:nonzero;"/>
                <path d="M740.063,929.546L740.063,757.749L795.727,757.749C816.821,757.749 830.571,758.609 836.977,760.327C846.821,762.905 855.063,768.511 861.703,777.144C868.344,785.777 871.664,796.929 871.664,810.601C871.664,821.148 869.75,830.015 865.922,837.202C862.094,844.39 857.231,850.034 851.332,854.136C845.434,858.238 839.438,860.952 833.344,862.28C825.063,863.921 813.071,864.741 797.368,864.741L774.75,864.741L774.75,929.546L740.063,929.546ZM774.75,786.812L774.75,835.562L793.735,835.562C807.407,835.562 816.547,834.663 821.157,832.866C825.766,831.07 829.379,828.257 831.996,824.429C834.614,820.601 835.922,816.148 835.922,811.07C835.922,804.82 834.086,799.663 830.414,795.601C826.743,791.538 822.094,788.999 816.469,787.984C812.328,787.202 804.008,786.812 791.508,786.812L774.75,786.812Z" style="fill-rule:nonzero;"/>
                <path d="M1037.25,929.546L999.516,929.546L984.516,890.523L915.844,890.523L901.664,929.546L864.868,929.546L931.782,757.749L968.461,757.749L1037.25,929.546ZM973.383,861.577L949.711,797.827L926.508,861.577L973.383,861.577Z" style="fill-rule:nonzero;"/>
                <path d="M1165.57,866.382L1199.2,877.046C1194.05,895.796 1185.47,909.722 1173.48,918.823C1161.49,927.925 1146.27,932.476 1127.84,932.476C1105.02,932.476 1086.27,924.683 1071.59,909.097C1056.9,893.511 1049.56,872.202 1049.56,845.171C1049.56,816.577 1056.94,794.37 1071.7,778.55C1086.47,762.73 1105.88,754.82 1129.95,754.82C1150.96,754.82 1168.03,761.03 1181.16,773.452C1188.97,780.796 1194.83,791.343 1198.74,805.093L1164.4,813.296C1162.37,804.39 1158.13,797.359 1151.68,792.202C1145.24,787.046 1137.41,784.468 1128.19,784.468C1115.45,784.468 1105.12,789.038 1097.19,798.179C1089.26,807.32 1085.3,822.124 1085.3,842.593C1085.3,864.312 1089.2,879.78 1097.02,888.999C1104.83,898.218 1114.99,902.827 1127.49,902.827C1136.7,902.827 1144.63,899.898 1151.27,894.038C1157.91,888.179 1162.68,878.96 1165.57,866.382Z" style="fill-rule:nonzero;"/>
                <path d="M1228.97,929.546L1228.97,757.749L1356.35,757.749L1356.35,786.812L1263.66,786.812L1263.66,824.898L1349.91,824.898L1349.91,853.843L1263.66,853.843L1263.66,900.601L1359.63,900.601L1359.63,929.546L1228.97,929.546Z" style="fill-rule:nonzero;"/>
            </g>
            <g transform="matrix(1,0,0,1,-230.861,-568.318)">
                <path d="M941.982,928.547L964.716,928.547L964.716,1027.81C964.716,1045.07 962.763,1058.78 958.857,1068.94C954.95,1079.09 947.899,1087.36 937.704,1093.72C927.509,1100.09 914.13,1103.27 897.567,1103.27C881.474,1103.27 868.31,1100.5 858.075,1094.95C847.841,1089.41 840.536,1081.38 836.161,1070.87C831.786,1060.36 829.599,1046.01 829.599,1027.81L829.599,928.547L852.333,928.547L852.333,1027.69C852.333,1042.61 853.72,1053.61 856.493,1060.68C859.267,1067.75 864.032,1073.19 870.79,1077.02C877.548,1080.85 885.81,1082.77 895.575,1082.77C912.294,1082.77 924.208,1078.98 931.317,1071.4C938.427,1063.82 941.982,1049.25 941.982,1027.69L941.982,928.547Z" style="fill-rule:nonzero;"/>
                <path d="M1001.86,1100.34L1001.86,928.547L1036.08,928.547L1076.75,1050.19C1080.5,1061.52 1083.23,1069.99 1084.95,1075.62C1086.9,1069.37 1089.95,1060.19 1094.09,1048.08L1135.22,928.547L1165.81,928.547L1165.81,1100.34L1143.9,1100.34L1143.9,956.555L1093.97,1100.34L1073.47,1100.34L1023.78,954.094L1023.78,1100.34L1001.86,1100.34Z" style="fill-rule:nonzero;"/>
                <path d="M1202.96,1100.34L1202.96,928.547L1327.18,928.547L1327.18,948.82L1225.69,948.82L1225.69,1001.44L1320.73,1001.44L1320.73,1021.59L1225.69,1021.59L1225.69,1080.07L1331.16,1080.07L1331.16,1100.34L1202.96,1100.34Z" style="fill-rule:nonzero;"/>
                <path d="M1354.83,1045.15L1376.28,1043.27C1377.29,1051.87 1379.66,1058.92 1383.37,1064.43C1387.08,1069.93 1392.84,1074.39 1400.65,1077.79C1408.47,1081.18 1417.26,1082.88 1427.02,1082.88C1435.69,1082.88 1443.35,1081.59 1449.99,1079.02C1456.63,1076.44 1461.57,1072.9 1464.81,1068.41C1468.06,1063.92 1469.68,1059.02 1469.68,1053.7C1469.68,1048.31 1468.11,1043.61 1464.99,1039.58C1461.86,1035.56 1456.71,1032.18 1449.52,1029.44C1444.91,1027.65 1434.72,1024.86 1418.93,1021.07C1403.15,1017.28 1392.1,1013.7 1385.77,1010.34C1377.57,1006.05 1371.45,1000.72 1367.43,994.348C1363.41,987.981 1361.4,980.852 1361.4,972.961C1361.4,964.289 1363.86,956.184 1368.78,948.645C1373.7,941.106 1380.89,935.383 1390.34,931.477C1399.79,927.57 1410.3,925.617 1421.86,925.617C1434.6,925.617 1445.83,927.668 1455.56,931.77C1465.28,935.871 1472.76,941.906 1478,949.875C1483.23,957.844 1486.04,966.867 1486.43,976.945L1464.64,978.586C1463.47,967.727 1459.5,959.524 1452.74,953.977C1445.99,948.43 1436.01,945.656 1422.8,945.656C1409.05,945.656 1399.03,948.176 1392.74,953.215C1386.45,958.254 1383.31,964.328 1383.31,971.438C1383.31,977.609 1385.54,982.688 1389.99,986.672C1394.36,990.656 1405.79,994.738 1424.27,998.918C1442.74,1003.1 1455.42,1006.75 1462.29,1009.88C1472.29,1014.48 1479.68,1020.32 1484.44,1027.39C1489.21,1034.46 1491.59,1042.61 1491.59,1051.83C1491.59,1060.97 1488.97,1069.58 1483.74,1077.67C1478.51,1085.75 1470.99,1092.04 1461.18,1096.54C1451.38,1101.03 1440.34,1103.27 1428.08,1103.27C1412.53,1103.27 1399.5,1101.01 1388.99,1096.48C1378.49,1091.94 1370.24,1085.13 1364.27,1076.03C1358.29,1066.93 1355.15,1056.63 1354.83,1045.15Z" style="fill-rule:nonzero;"/>
                <path d="M1523.35,1100.34L1523.35,928.547L1546.08,928.547L1546.08,999.094L1635.38,999.094L1635.38,928.547L1658.11,928.547L1658.11,1100.34L1635.38,1100.34L1635.38,1019.37L1546.08,1019.37L1546.08,1100.34L1523.35,1100.34Z" style="fill-rule:nonzero;"/>
            </g>
            <g transform="matrix(1,0,0,1,533.777,453.812)">
                <path d="M60.375,284.25C52.625,284.25 45.938,281.75 40.313,276.75C34.688,271.75 31.875,264.75 31.875,255.75C31.875,248.125 34.563,241.563 39.938,236.063C45.313,230.563 51.938,227.813 59.813,227.813C67.688,227.813 74.406,230.531 79.969,235.969C85.531,241.406 88.313,248 88.313,255.75C88.313,264.625 85.531,271.594 79.969,276.656C74.406,281.719 67.875,284.25 60.375,284.25Z" style="fill-rule:nonzero;"/>
            </g>
        </g>
    </g>
</svg>
